<svg xmlns="http://www.w3.org/2000/svg" version="1.1" xmlns:xlink="http://www.w3.org/1999/xlink" xmlns:svgjs="http://svgjs.dev/svgjs" width="1000" height="750" viewBox="0 0 1000 750"><rect width="1000" height="750" fill="#ffffff"></rect><g transform="matrix(0.834,0,0,0.834,82.49456000724638,328.16128469292715)"><svg viewBox="0 0 396 45" data-background-color="#ffffff" preserveAspectRatio="xMidYMid meet" height="113" width="1000" xmlns="http://www.w3.org/2000/svg" xmlns:xlink="http://www.w3.org/1999/xlink"><g id="tight-bounds" transform="matrix(1,0,0,1,0.2399930900844538,-0.13478927847160094)"><svg viewBox="0 0 395.52 45.26957704280401" height="45.26957704280401" width="395.52"><g><svg viewBox="0 0 471.5402838131838 53.9705430998852" height="45.26957704280401" width="395.52"><g><rect width="3.521793975649874" height="39.24775384615384" x="63.279133880335316" y="7.361394626865678" fill="#000000" opacity="1" stroke-width="0" stroke="transparent" fill-opacity="1" class="rect-o-0" data-fill-palette-color="primary" rx="1%" id="o-0" data-palette-color="#000000"></rect></g><g transform="matrix(1,0,0,1,76.02028381318382,7.4590258553386946)"><svg viewBox="0 0 395.52 39.05249138920781" height="39.05249138920781" width="395.52"><g><svg viewBox="0 0 395.52 39.05249138920781" height="39.05249138920781" width="395.52" id="textblock"><g><svg viewBox="0 0 395.52 39.05249138920781" height="39.05249138920781" width="395.52"><g transform="matrix(1,0,0,1,0,0)"><svg width="395.52" viewBox="0.9000000357627869 -33.5 438.6999816894531 43" height="39.05249138920781" data-palette-color="#000000"><g class="undefined-text-0" data-fill-palette-color="primary" id="text-0"><path d="M38.5-9.45L38.5-9.45Q38.5-7.65 37.7-6.05L37.7-6.05Q36-2.45 31.2-0.05 26.4 2.35 21.2 2.35L21.2 2.35Q13.3 2.35 10.45-3.05L10.45-3.05Q5.3 1.25 3.1 1.25L3.1 1.25Q2.7 1.25 2.4 1.1L2.4 1.1Q0.9 0.3 0.9-2.35 0.9-5 3.1-8.85 5.3-12.7 6.95-13.4L6.95-13.4Q7.7-13.65 8.1-13.65L8.1-13.65Q9.55-13.65 10.3-11.25L10.3-11.25 11.8-6.45Q13.25-8 15.75-11.4L15.75-11.4 20.2-17.4Q28.4-28.05 30.95-29.05L30.95-29.05Q31.85-29.4 32.8-29.4 33.75-29.4 34.38-29 35-28.6 35-28L35-28Q35-27.1 33.55-26.95L33.55-26.95Q32.05-26.1 27.83-21.98 23.6-17.85 22.8-16.75L22.8-16.75Q17.2-8.95 12.45-4.75L12.45-4.75Q15.5 1.3 21.6 1.3L21.6 1.3Q25.3 1.3 28.95-1.03 32.6-3.35 34.4-6.75L34.4-6.75Q35.2-8.2 35.2-10 35.2-11.8 33.77-13.43 32.35-15.05 30.2-15.8L30.2-15.8Q29.2-15.95 27-16.23 24.8-16.5 24.8-17.15L24.8-17.15Q24.8-17.4 25-17.6L25-17.6Q25.6-18.3 26.55-18.3L26.55-18.3Q27.1-18.3 27.63-18.1 28.15-17.9 28.45-17.8 28.75-17.7 29.15-17.55L29.15-17.55Q30.25-17.45 31.05-17.45L31.05-17.45Q34.35-17.45 37.05-18.5L37.05-18.5Q40.5-19.85 41.45-22.55L41.45-22.55Q42.05-24.3 42.05-25.7L42.05-25.7Q42.05-29.15 38.7-30.85L38.7-30.85Q35.8-32.35 30.75-32.35L30.75-32.35Q22.8-32.35 16.5-29.35L16.5-29.35Q13.3-27.85 10.43-24.9 7.55-21.95 7.55-19.85L7.55-19.85Q7.55-18.4 8.3-17.45L8.3-17.45Q8.6-17.05 9.35-16.45L9.35-16.45Q9.6-16.3 9.05-16.3L9.05-16.3Q5.95-17 5.95-20.45 5.95-23.9 9.45-26.95L9.45-26.95Q12.05-29.2 15.3-30.6L15.3-30.6Q22.05-33.5 30.65-33.5L30.65-33.5Q36.8-33.5 40.45-31.7L40.45-31.7Q44.7-29.7 44.7-25.65L44.7-25.65Q44.7-24.05 44.05-22.4L44.05-22.4Q43-19.4 38.6-17.85L38.6-17.85Q35.3-16.7 31.5-16.65L31.5-16.65Q34.45-16.5 36.48-14.48 38.5-12.45 38.5-9.45ZM6.55-11.3L6.55-11.3Q6.5-11.3 6.3-11.2L6.3-11.2Q2.6-5.85 2.6-2.6L2.6-2.6Q2.6-1.25 3.25-0.15L3.25-0.15Q3.4 0.1 3.75 0.1L3.75 0.1Q5.35 0.1 9.9-4.45L9.9-4.45 9.75-4.65Q7.75-11.3 6.55-11.3ZM51.8-20.4Q52.55-20.4 53.22-19.93 53.9-19.45 53.9-18.8 53.9-18.15 53.27-17.68 52.65-17.2 51.9-17.2 51.15-17.2 50.52-17.75 49.9-18.3 49.9-19L49.9-19Q49.9-20.4 51.8-20.4L51.8-20.4ZM42.75 0.55L42.75 0.55Q40.2 0.55 40.2-2.75L40.2-2.75Q40.2-5.45 43.15-10.23 46.1-15 47.9-15.05L47.9-15.05Q48.4-15.05 49.02-14.65 49.65-14.25 49.65-13.85L49.65-13.85Q49.4-13.5 49.05-13.08 48.7-12.65 48.3-12.15 47.9-11.65 47.2-10.73 46.5-9.8 45.85-8.95L45.85-8.95Q42.1-4.1 42.1-2.27 42.1-0.45 43.35-0.45L43.35-0.45Q44.4-0.45 46.2-1.6L46.2-1.6Q50.4-4.2 52.85-7.3L52.85-7.3Q53.75-8.45 54.07-8.45 54.4-8.45 54.4-8.05 54.4-7.65 53.25-6.45 52.1-5.25 51.42-4.55 50.75-3.85 50.5-3.63 50.25-3.4 49.57-2.78 48.9-2.15 48.55-1.9 48.2-1.65 47.55-1.15 46.9-0.65 46.4-0.43 45.9-0.2 45.25 0.1L45.25 0.1Q44.2 0.55 42.75 0.55ZM63.65-12.45L63.65-12.45Q63.65-15.85 65.75-15.85L65.75-15.85Q65.95-15.85 66.2-15.8L66.2-15.8Q67.05-15.65 67.05-14.5 67.05-13.35 66.65-11.6L66.65-11.6Q66.25-10.3 66.09-9.65L66.09-9.65Q66.25-8.8 66.92-7.48 67.59-6.15 68.77-6.15 69.95-6.15 71.4-7.75L71.4-7.75Q71.7-8.1 71.97-8.1 72.25-8.1 72.27-7.78 72.3-7.45 71.9-6.9L71.9-6.9Q70.34-5.05 68.65-5.05L68.65-5.05Q66.2-5.05 64.7-8.65L64.7-8.65Q63.15-5.1 60.3-2.53 57.45 0.05 54.65 0.05L54.65 0.05Q52 0.05 52-3.95L52-3.95Q52-7.1 57.87-15.55 63.75-24 66.84-24L66.84-24Q67.5-24 68.02-23.6 68.55-23.2 68.55-22.65L68.55-22.65Q68.55-22.7 67.82-21.9 67.09-21.1 63.87-17.6 60.65-14.1 57.55-9.9 54.45-5.7 54.45-3.4L54.45-3.4Q54.45-2.8 54.77-2.1 55.1-1.4 55.85-1.4L55.85-1.4Q58.05-1.4 61-4.8L61-4.8Q63.45-7.8 64-9.85L64-9.85Q63.65-10.9 63.65-12.45ZM72.44-2.5Q72.44-1 74.09-1 75.74-1 78.34-2.75 80.94-4.5 83.39-7.5L83.39-7.5Q83.99-8.3 84.34-8.3 84.69-8.3 84.69-8L84.69-8Q84.69-7.7 82.64-5.4L82.64-5.4Q77.64 0.1 74.29 0.1L74.29 0.1Q72.64 0.1 71.49-0.68 70.34-1.45 70.34-3.08 70.34-4.7 71.19-6.85L71.19-6.85Q72.64-10.25 75.84-15.4L75.84-15.4Q81.69-24.9 84.14-24.9L84.14-24.9Q84.64-24.9 85.17-24.53 85.69-24.15 85.74-23.7L85.74-23.7Q84.59-22.15 81.32-17.75 78.04-13.35 76.79-11.43 75.54-9.5 74.92-8.55 74.29-7.6 73.99-7.08 73.69-6.55 73.29-5.7L73.29-5.7Q72.44-4 72.44-2.5ZM93.49-20.4Q94.24-20.4 94.92-19.93 95.59-19.45 95.59-18.8 95.59-18.15 94.97-17.68 94.34-17.2 93.59-17.2 92.84-17.2 92.22-17.75 91.59-18.3 91.59-19L91.59-19Q91.59-20.4 93.49-20.4L93.49-20.4ZM84.44 0.55L84.44 0.55Q81.89 0.55 81.89-2.75L81.89-2.75Q81.89-5.45 84.84-10.23 87.79-15 89.59-15.05L89.59-15.05Q90.09-15.05 90.72-14.65 91.34-14.25 91.34-13.85L91.34-13.85Q91.09-13.5 90.74-13.08 90.39-12.65 89.99-12.15 89.59-11.65 88.89-10.73 88.19-9.8 87.54-8.95L87.54-8.95Q83.79-4.1 83.79-2.27 83.79-0.45 85.04-0.45L85.04-0.45Q86.09-0.45 87.89-1.6L87.89-1.6Q92.09-4.2 94.54-7.3L94.54-7.3Q95.44-8.45 95.77-8.45 96.09-8.45 96.09-8.05 96.09-7.65 94.94-6.45 93.79-5.25 93.12-4.55 92.44-3.85 92.19-3.63 91.94-3.4 91.27-2.78 90.59-2.15 90.24-1.9 89.89-1.65 89.24-1.15 88.59-0.65 88.09-0.43 87.59-0.2 86.94 0.1L86.94 0.1Q85.89 0.55 84.44 0.55ZM106.99-10.6L106.99-10.6Q106.99-8.85 103.64-4.75L103.64-4.75Q99.69 0.1 96.89 0.1L96.89 0.1 96.09 0.1Q94.79 0.1 94.04-1.25L94.04-1.25Q93.44-2.2 93.44-3.35L93.44-3.35Q93.44-6.35 97.81-11.78 102.19-17.2 104.89-17.2L104.89-17.2Q107.44-17.2 107.44-14.5L107.44-14.5Q107.44-13.8 107.19-12.7L107.19-12.7Q107.24-12.55 108.14-12.55 109.04-12.55 110.89-13.5L110.89-13.5Q110.84-12.65 106.94-11.05L106.94-11.05Q106.99-10.85 106.99-10.6ZM103.74-13.2L103.74-13.2Q102.04-13.2 98.91-9.2 95.79-5.2 95.79-3.3 95.79-1.4 96.99-1.4L96.99-1.4Q99.14-1.4 102.44-5.3 105.74-9.2 105.74-10.9L105.74-10.9Q104.94-11.35 103.74-13.2ZM121.04-16.1L121.04-16.1 128.24-16.2Q128.39-16.1 128.39-16.05L128.39-16.05Q128.39-15.6 122.16-14.8 115.94-14 115.44-13.85L115.44-13.85Q114.49-13 111.94-8.78 109.39-4.55 109.39-2.6L109.39-2.6Q109.39-0.75 111.94-0.75L111.94-0.75Q113.14-0.75 115.09-1.5 117.04-2.25 118.09-2.9L118.09-2.9Q120.89-4.65 124.09-8.05L124.09-8.05Q124.79-8.75 125.04-8.75L125.04-8.75Q125.19-8.75 125.19-8.45 125.19-8.15 124.44-7.25L124.44-7.25Q121.84-4.05 118.59-2.1L118.59-2.1Q114.69 0.3 111.14 0.3L111.14 0.3Q109.59 0.3 108.61-0.38 107.64-1.05 107.64-3.1 107.64-5.15 109.44-8.72 111.24-12.3 112.19-14.05L112.19-14.05Q111.49-13.9 110.99-13.9L110.99-13.9Q109.54-13.9 109.54-15.05L109.54-15.05Q109.54-15.9 110.74-16.25L110.74-16.25Q110.89-16.25 111.19-16.3L111.19-16.3 114.09-16.3Q114.99-17.45 116.14-18.95L116.14-18.95Q117.54-20.75 118.04-20.75 118.54-20.75 119.29-20.35 120.04-19.95 120.04-19.4 120.04-18.85 117.64-16.15L117.64-16.15Q118.94-16.1 121.04-16.1ZM125.38 0.65L125.38 0.65Q124.83 0.65 124.38 0.5L124.38 0.5Q121.18-0.4 121.18-3.1L121.18-3.1Q121.18-6.6 125.58-11.2 129.98-15.8 133.48-15.8L133.48-15.8Q134.63-15.8 135.36-15.18 136.08-14.55 136.08-13.65L136.08-13.65Q136.08-10.85 131.86-8.3 127.63-5.75 124.98-5.75L124.98-5.75Q124.58-5.75 124.28-5.85L124.28-5.85Q123.53-4.5 123.53-3L123.53-3Q123.53-0.4 126.01-0.4 128.48-0.4 132.43-3.75L132.43-3.75Q135.48-6.2 137.63-8.95L137.63-8.95Q138.08-9.55 138.41-9.55 138.73-9.55 138.73-9.25 138.73-8.95 138.33-8.4L138.33-8.4Q135.63-4.85 131.83-2.1 128.03 0.65 125.38 0.65ZM134.83-13.75L134.83-13.75Q134.83-14.35 133.56-14.35 132.28-14.35 129.93-12.4L129.93-12.4Q126.78-9.8 125.03-6.95L125.03-6.95Q125.33-6.85 125.68-6.85L125.68-6.85Q127.58-6.85 130.76-8.88 133.93-10.9 134.73-13.3L134.73-13.3Q134.83-13.55 134.83-13.75ZM139.48 0.65L139.48 0.65Q138.93 0.65 138.48 0.5L138.48 0.5Q135.28-0.4 135.28-3.1L135.28-3.1Q135.28-6.6 139.68-11.2 144.08-15.8 147.58-15.8L147.58-15.8Q148.73-15.8 149.46-15.18 150.18-14.55 150.18-13.48 150.18-12.4 149.53-11.23 148.88-10.05 147.58-10.05 146.28-10.05 146.28-10.85L146.28-10.85Q146.28-11.4 146.96-12.53 147.63-13.65 147.63-13.73 147.63-13.8 147.48-13.8L147.48-13.8Q146.08-13.65 143.66-11.8 141.23-9.95 140.33-8.7L140.33-8.7 138.38-5.85Q137.88-5.05 137.66-3.95 137.43-2.85 137.43-2.3 137.43-1.75 138.06-1.05 138.68-0.35 139.83-0.35L139.83-0.35Q142.33-0.35 146.03-3.28 149.73-6.2 151.73-8.85L151.73-8.85Q151.98-9.15 152.33-9.15 152.68-9.15 152.68-8.95 152.68-8.75 152.43-8.45L152.43-8.45Q149.68-4.8 145.86-2.08 142.03 0.65 139.48 0.65ZM166.43-14.95L166.43-14.95 167.13-15.1Q167.68-15.1 168.18-14.65 168.68-14.2 168.68-13.95 168.68-13.7 165.58-9.13 162.48-4.55 162.48-2.75L162.48-2.75Q162.48-2.6 162.53-2.45L162.53-2.45Q162.78-1.3 163.63-1.3L163.63-1.3Q166.23-1.3 173.13-9.9L173.13-9.9Q173.28-10.1 173.48-10.1 173.68-10.1 173.68-9.73 173.68-9.35 173.23-8.75L173.23-8.75Q166.83-0.2 163.48-0.2L163.48-0.2Q163.03-0.2 162.63-0.35L162.63-0.35Q160.43-1.2 160.43-3.65L160.43-3.65Q160.43-4.5 160.63-5.35L160.63-5.35 157.53-2.35Q154.58 0.25 153.25 0.25 151.93 0.25 150.73-0.6L150.73-0.6Q149.38-1.6 149.38-3.25L149.38-3.25Q149.38-6.9 154.48-11.98 159.58-17.05 163.83-17.05L163.83-17.05Q165.48-17.05 166.03-15.9L166.03-15.9Q166.18-15.5 166.28-15.23 166.38-14.95 166.43-14.95ZM151.48-2.65L151.48-2.65Q151.48-0.85 152.73-0.85L152.73-0.85Q155.63-0.85 160.63-7.2L160.63-7.2 165.93-14.5Q165.53-15.2 164.63-15.2L164.63-15.2Q161.58-15.2 156.53-10.48 151.48-5.75 151.48-2.65Z" fill="#000000" data-fill-palette-color="primary"></path><path d="M200.73-13.9L200.73-13.9Q197.73-13.9 195.68-15.28 193.63-16.65 193.63-18.75L193.63-18.75Q193.63-21.4 197.08-24.05L197.08-24.05Q197.68-24.5 197.98-24.5 198.28-24.5 198.28-24.3L198.28-24.3Q198.28-23.8 197.48-23.5L197.48-23.5Q194.68-21.25 194.68-18.95L194.68-18.95Q194.68-17.3 196.18-16.18 197.68-15.05 199.93-15.05L199.93-15.05Q204.83-15.05 209.18-19.75L209.18-19.75Q211.43-22.2 211.43-25.4 211.43-28.6 209.03-30.15L209.03-30.15Q207.03-31.55 203.63-31.55L203.63-31.55Q198.73-31.55 193.78-29.1L193.78-29.1Q187.68-26.15 182.76-19.93 177.83-13.7 177.83-7.95L177.83-7.95Q177.83-3.4 180.93-0.93 184.03 1.55 188.63 1.55L188.63 1.55Q193.88 1.55 198.93-1L198.93-1Q202.78-3 205.58-6.1L205.58-6.1Q206.38-7 206.83-7L206.83-7Q207.13-7 207.13-6.48 207.13-5.95 206.58-5.4L206.58-5.4Q203.93-2.6 198.93 0L198.93 0Q192.78 3.25 186.56 3.25 180.33 3.25 177.28-0.85L177.28-0.85Q175.23-3.55 175.23-7.3L175.23-7.3Q175.23-8.95 175.63-10.85L175.63-10.85Q176.98-17.25 182.73-23.3L182.73-23.3Q186.88-27.65 192.58-30.08 198.28-32.5 203.38-32.5L203.38-32.5Q206.08-32.5 208.08-31.85L208.08-31.85Q213.53-30.15 213.53-25L213.53-25Q213.53-21.85 211.68-19.55L211.68-19.55Q207.08-13.9 200.73-13.9ZM223.03-10.6L223.03-10.6Q223.03-8.85 219.68-4.75L219.68-4.75Q215.73 0.1 212.93 0.1L212.93 0.1 212.13 0.1Q210.83 0.1 210.08-1.25L210.08-1.25Q209.48-2.2 209.48-3.35L209.48-3.35Q209.48-6.35 213.85-11.78 218.23-17.2 220.93-17.2L220.93-17.2Q223.48-17.2 223.48-14.5L223.48-14.5Q223.48-13.8 223.23-12.7L223.23-12.7Q223.28-12.55 224.18-12.55 225.08-12.55 226.93-13.5L226.93-13.5Q226.88-12.65 222.98-11.05L222.98-11.05Q223.03-10.85 223.03-10.6ZM219.78-13.2L219.78-13.2Q218.08-13.2 214.95-9.2 211.83-5.2 211.83-3.3 211.83-1.4 213.03-1.4L213.03-1.4Q215.18-1.4 218.48-5.3 221.78-9.2 221.78-10.9L221.78-10.9Q220.98-11.35 219.78-13.2ZM247.93-0.6L247.93-0.6Q244.53-0.6 244.53-3.75L244.53-3.75Q244.53-5.55 246.13-8.68 247.73-11.8 249.48-13.95L249.48-13.95Q246.38-12.45 242.33-8.53 238.28-4.6 236.68-0.3L236.68-0.3Q236.43 0.1 235.83 0.1L235.83 0.1Q234.63 0.1 234.63-1.25L234.63-1.25Q235.13-4 236.88-7.55L236.88-7.55Q237.43-8.7 240.13-14.25L240.13-14.25Q236.23-11.7 233.5-8.78 230.78-5.85 228.45-2.9 226.13 0.05 225.83 0.05L225.83 0.05Q225.18 0.05 224.7-0.55 224.23-1.15 224.23-1.75L224.23-1.75Q224.23-2.65 226.83-8.35L226.83-8.35 223.83-5.2Q222.73-4.1 222.45-4.1 222.18-4.1 222.18-4.42 222.18-4.75 222.58-5.15L222.58-5.15Q224.43-7 225.88-8.85 227.33-10.7 230.68-15.45L230.68-15.45Q231.23-16.2 232.23-16.2 233.23-16.2 233.23-15.25L233.23-15.25Q233.23-14.9 230.58-10.38 227.93-5.85 227.63-4.7L227.63-4.7Q229.68-6.95 233.78-10.75L233.78-10.75Q239.93-16.45 241.88-16.45L241.88-16.45Q242.48-16.45 242.98-16.1 243.48-15.75 243.48-15.33 243.48-14.9 241.53-11.55L241.53-11.55Q239.63-8.1 239.43-7.45L239.43-7.45Q244.98-12.1 244.98-12.15L244.98-12.15Q249.68-15.8 251.73-15.8L251.73-15.8Q252.33-15.8 252.85-15.43 253.38-15.05 253.38-14.55L253.38-14.55Q253.38-14.45 250.13-10.33 246.88-6.2 246.48-3.55L246.48-3.55Q246.38-2.65 246.83-2.2 247.28-1.75 248.45-1.75 249.63-1.75 251.9-3.38 254.18-5 256.53-7.75L256.53-7.75Q257.43-8.75 257.75-8.75 258.08-8.75 258.08-8.5L258.08-8.5Q258.08-8.15 257.63-7.7L257.63-7.7Q255.18-4.75 252.35-2.68 249.53-0.6 247.93-0.6ZM274.42-11.3L274.42-11.3Q274.42-7.25 269.8-3.63 265.17 0 261.77 0L261.77 0Q259.52 0 258.5-0.3 257.47-0.6 256.22-2.1L256.22-2.1Q255.37-1.4 253.92 1.48 252.47 4.35 252.47 6.4L252.47 6.4Q252.47 7.35 253.42 8.9L253.42 8.9Q253.52 9.15 253.27 9.33 253.02 9.5 252.9 9.5 252.77 9.5 252.67 9.45L252.67 9.45Q250.57 8.3 250.57 4.98 250.57 1.65 256.1-6.53 261.62-14.7 263.72-15.4L263.72-15.4Q264.22-15.5 264.37-15.5L264.37-15.5Q265.22-15.5 265.22-13.65L265.22-13.65Q265.72-14.15 267.27-14.6L267.27-14.6Q269.17-15.1 269.97-15.1L269.97-15.1Q271.77-15.1 273.1-14.08 274.42-13.05 274.42-11.3ZM271.87-11.8L271.87-11.8Q271.87-13.7 269.62-13.7 267.37-13.7 265.52-12.75L265.52-12.75Q264.67-12.35 260.82-8.35 256.97-4.35 256.97-3.2L256.97-3.2Q256.97-2.3 258.35-1.85 259.72-1.4 261.12-1.4L261.12-1.4Q263.87-1.4 267.87-4.53 271.87-7.65 271.87-11.8ZM291.02-14.95L291.02-14.95 291.72-15.1Q292.27-15.1 292.77-14.65 293.27-14.2 293.27-13.95 293.27-13.7 290.17-9.13 287.07-4.55 287.07-2.75L287.07-2.75Q287.07-2.6 287.12-2.45L287.12-2.45Q287.37-1.3 288.22-1.3L288.22-1.3Q290.82-1.3 297.72-9.9L297.72-9.9Q297.87-10.1 298.07-10.1 298.27-10.1 298.27-9.73 298.27-9.35 297.82-8.75L297.82-8.75Q291.42-0.2 288.07-0.2L288.07-0.2Q287.62-0.2 287.22-0.35L287.22-0.35Q285.02-1.2 285.02-3.65L285.02-3.65Q285.02-4.5 285.22-5.35L285.22-5.35 282.12-2.35Q279.17 0.25 277.85 0.25 276.52 0.25 275.32-0.6L275.32-0.6Q273.97-1.6 273.97-3.25L273.97-3.25Q273.97-6.9 279.07-11.98 284.17-17.05 288.42-17.05L288.42-17.05Q290.07-17.05 290.62-15.9L290.62-15.9Q290.77-15.5 290.87-15.23 290.97-14.95 291.02-14.95ZM276.07-2.65L276.07-2.65Q276.07-0.85 277.32-0.85L277.32-0.85Q280.22-0.85 285.22-7.2L285.22-7.2 290.52-14.5Q290.12-15.2 289.22-15.2L289.22-15.2Q286.17-15.2 281.12-10.48 276.07-5.75 276.07-2.65ZM305.22 0.25L305.22 0.25Q301.47 0.25 301.47-3.9L301.47-3.9Q301.47-6 302.57-8.5 303.67-11 304.97-12.7L304.97-12.7Q304.72-12.65 304.32-12.65L304.32-12.65Q303.12-12.65 302.32-14.35L302.32-14.35 298.62-9.55Q295.52-5.7 295.02-5.7L295.02-5.7Q294.77-5.7 294.77-5.9L294.77-5.9Q294.77-6.4 295.62-7.35L295.62-7.35Q299.97-12.4 301.77-15.9L301.77-15.9Q302.92-20.25 304.67-20.25L304.67-20.25Q305.82-20.25 305.82-19.25 305.82-18.25 304.57-16.7L304.57-16.7 303.37-15.1Q303.37-14.05 304.92-14.05L304.92-14.05Q305.82-14.05 306.92-14.7L306.92-14.7 308.22-15.5Q308.32-15.55 308.72-15.55 309.12-15.55 309.57-15.05 310.02-14.55 309.87-14.15L309.87-14.15 306.42-9.8Q303.22-5.7 303.22-3.33 303.22-0.95 305.42-0.95L305.42-0.95Q307.72-0.95 311.07-3.4L311.07-3.4Q313.07-4.85 314.72-6.65L314.72-6.65Q316.27-8.45 316.42-8.45L316.42-8.45Q316.77-8.45 316.77-8.08 316.77-7.7 316.32-7.2L316.32-7.2 314.72-5.4Q313.37-4 311.72-2.7L311.72-2.7Q307.77 0.25 305.22 0.25ZM327.77-16.1L327.77-16.1 334.97-16.2Q335.12-16.1 335.12-16.05L335.12-16.05Q335.12-15.6 328.89-14.8 322.67-14 322.17-13.85L322.17-13.85Q321.22-13 318.67-8.78 316.12-4.55 316.12-2.6L316.12-2.6Q316.12-0.75 318.67-0.75L318.67-0.75Q319.87-0.75 321.82-1.5 323.77-2.25 324.82-2.9L324.82-2.9Q327.62-4.65 330.82-8.05L330.82-8.05Q331.52-8.75 331.77-8.75L331.77-8.75Q331.92-8.75 331.92-8.45 331.92-8.15 331.17-7.25L331.17-7.25Q328.57-4.05 325.32-2.1L325.32-2.1Q321.42 0.3 317.87 0.3L317.87 0.3Q316.32 0.3 315.34-0.38 314.37-1.05 314.37-3.1 314.37-5.15 316.17-8.72 317.97-12.3 318.92-14.05L318.92-14.05Q318.22-13.9 317.72-13.9L317.72-13.9Q316.27-13.9 316.27-15.05L316.27-15.05Q316.27-15.9 317.47-16.25L317.47-16.25Q317.62-16.25 317.92-16.3L317.92-16.3 320.82-16.3Q321.72-17.45 322.87-18.95L322.87-18.95Q324.27-20.75 324.77-20.75 325.27-20.75 326.02-20.35 326.77-19.95 326.77-19.4 326.77-18.85 324.37-16.15L324.37-16.15Q325.67-16.1 327.77-16.1ZM340.41-20.4Q341.16-20.4 341.84-19.93 342.51-19.45 342.51-18.8 342.51-18.15 341.89-17.68 341.26-17.2 340.51-17.2 339.76-17.2 339.14-17.75 338.51-18.3 338.51-19L338.51-19Q338.51-20.4 340.41-20.4L340.41-20.4ZM331.36 0.55L331.36 0.55Q328.81 0.55 328.81-2.75L328.81-2.75Q328.81-5.45 331.76-10.23 334.71-15 336.51-15.05L336.51-15.05Q337.01-15.05 337.64-14.65 338.26-14.25 338.26-13.85L338.26-13.85Q338.01-13.5 337.66-13.08 337.31-12.65 336.91-12.15 336.51-11.65 335.81-10.73 335.11-9.8 334.46-8.95L334.46-8.95Q330.71-4.1 330.71-2.27 330.71-0.45 331.96-0.45L331.96-0.45Q333.01-0.45 334.81-1.6L334.81-1.6Q339.01-4.2 341.46-7.3L341.46-7.3Q342.36-8.45 342.69-8.45 343.01-8.45 343.01-8.05 343.01-7.65 341.86-6.45 340.71-5.25 340.04-4.55 339.36-3.85 339.11-3.63 338.86-3.4 338.19-2.78 337.51-2.15 337.16-1.9 336.81-1.65 336.16-1.15 335.51-0.65 335.01-0.43 334.51-0.2 333.86 0.1L333.86 0.1Q332.81 0.55 331.36 0.55ZM342.81-2.5Q342.81-1 344.46-1 346.11-1 348.71-2.75 351.31-4.5 353.76-7.5L353.76-7.5Q354.36-8.3 354.71-8.3 355.06-8.3 355.06-8L355.06-8Q355.06-7.7 353.01-5.4L353.01-5.4Q348.01 0.1 344.66 0.1L344.66 0.1Q343.01 0.1 341.86-0.68 340.71-1.45 340.71-3.08 340.71-4.7 341.56-6.85L341.56-6.85Q343.01-10.25 346.21-15.4L346.21-15.4Q352.06-24.9 354.51-24.9L354.51-24.9Q355.01-24.9 355.54-24.53 356.06-24.15 356.11-23.7L356.11-23.7Q354.96-22.15 351.69-17.75 348.41-13.35 347.16-11.43 345.91-9.5 345.29-8.55 344.66-7.6 344.36-7.08 344.06-6.55 343.66-5.7L343.66-5.7Q342.81-4 342.81-2.5ZM364.86-0.2L364.86-0.2Q361.91-0.2 361.91-3.65L361.91-3.65Q361.91-5.6 363.28-7.98 364.66-10.35 366.66-13.55L366.66-13.55Q360.26-10.35 355.06-4.1L355.06-4.1Q352.16 0.25 351.66 0.25L351.66 0.25Q350.21 0.25 350.21-0.6L350.21-0.6Q350.21-1.05 350.81-2.2L350.81-2.2Q355.66-10.85 358.16-14.85L358.16-14.85Q364.11-24.4 366.56-25.2L366.56-25.2Q366.66-25.25 366.76-25.25L366.76-25.25Q367.41-25.25 367.66-24.2L367.66-24.2Q367.51-23.15 362.46-16.6L362.46-16.6Q357.21-9.95 356.51-7.9L356.51-7.9Q358.36-9.25 362.96-12.45L362.96-12.45Q367.91-15.9 369.51-15.9 371.11-15.9 371.11-14.65L371.11-14.65Q371.11-14.45 371.08-14.38 371.06-14.3 367.61-9.65 364.16-5 364.16-2.8L364.16-2.8Q364.16-1.65 365.01-1.65L365.01-1.65Q367.71-1.75 373.11-8.15L373.11-8.15Q373.56-8.6 373.78-8.6 374.01-8.6 374.01-8.3L374.01-8.3Q374.01-7.3 369.06-2.9L369.06-2.9Q365.96-0.2 364.86-0.2ZM388.41-14.95L388.41-14.95 389.11-15.1Q389.66-15.1 390.16-14.65 390.66-14.2 390.66-13.95 390.66-13.7 387.56-9.13 384.46-4.55 384.46-2.75L384.46-2.75Q384.46-2.6 384.51-2.45L384.51-2.45Q384.76-1.3 385.61-1.3L385.61-1.3Q388.21-1.3 395.11-9.9L395.11-9.9Q395.26-10.1 395.46-10.1 395.66-10.1 395.66-9.73 395.66-9.35 395.21-8.75L395.21-8.75Q388.81-0.2 385.46-0.2L385.46-0.2Q385.01-0.2 384.61-0.35L384.61-0.35Q382.41-1.2 382.41-3.65L382.41-3.65Q382.41-4.5 382.61-5.35L382.61-5.35 379.51-2.35Q376.56 0.25 375.23 0.25 373.91 0.25 372.71-0.6L372.71-0.6Q371.36-1.6 371.36-3.25L371.36-3.25Q371.36-6.9 376.46-11.98 381.56-17.05 385.81-17.05L385.81-17.05Q387.46-17.05 388.01-15.9L388.01-15.9Q388.16-15.5 388.26-15.23 388.36-14.95 388.41-14.95ZM373.46-2.65L373.46-2.65Q373.46-0.85 374.71-0.85L374.71-0.85Q377.61-0.85 382.61-7.2L382.61-7.2 387.91-14.5Q387.51-15.2 386.61-15.2L386.61-15.2Q383.56-15.2 378.51-10.48 373.46-5.75 373.46-2.65ZM408.8-15.15L408.8-15.15Q414.4-24.25 416.6-24.25L416.6-24.25Q416.95-24.25 417.58-24.03 418.2-23.8 418.2-23.35L418.2-23.35Q418.2-23.1 417.95-22.7L417.95-22.7Q413.95-17.8 412-15.35L412-15.35Q406.1-7.9 405.5-4.65L405.5-4.65Q405.35-3.95 405.35-3.25L405.35-3.25Q405.35-1 407.2-1L407.2-1Q410.9-1 416.85-7.85L416.85-7.85Q417.35-8.35 417.7-8.43 418.05-8.5 418.05-8.25 418.05-8 417.75-7.65L417.75-7.65Q411.95-0.7 407.45 0.1L407.45 0.1Q407.2 0.15 406.75 0.15L406.75 0.15Q405.2 0.15 404.43-0.93 403.65-2 403.65-3.25L403.65-3.25Q403.65-4.65 404.2-6.35L404.2-6.35 400.15-2.3Q397.4 0.25 395.83 0.25 394.25 0.25 393.2-0.6L393.2-0.6Q391.95-1.55 391.95-3.25L391.95-3.25Q391.95-6.9 397.05-11.98 402.15-17.05 406.4-17.05L406.4-17.05Q407.8-17.05 408.35-16.3L408.35-16.3Q408.55-16.05 408.8-15.15ZM394.05-2.65L394.05-2.65Q394.05-0.85 395.3-0.85L395.3-0.85Q397.45-0.85 402.45-6.75L402.45-6.75Q403.35-7.8 408.45-14.6L408.45-14.6Q408.1-15.2 407.25-15.2L407.25-15.2Q404.15-15.2 399.1-10.48 394.05-5.75 394.05-2.65ZM432.35-14.95L432.35-14.95 433.05-15.1Q433.6-15.1 434.1-14.65 434.6-14.2 434.6-13.95 434.6-13.7 431.5-9.13 428.4-4.55 428.4-2.75L428.4-2.75Q428.4-2.6 428.45-2.45L428.45-2.45Q428.7-1.3 429.55-1.3L429.55-1.3Q432.15-1.3 439.05-9.9L439.05-9.9Q439.2-10.1 439.4-10.1 439.6-10.1 439.6-9.73 439.6-9.35 439.15-8.75L439.15-8.75Q432.75-0.2 429.4-0.2L429.4-0.2Q428.95-0.2 428.55-0.35L428.55-0.35Q426.35-1.2 426.35-3.65L426.35-3.65Q426.35-4.5 426.55-5.35L426.55-5.35 423.45-2.35Q420.5 0.25 419.18 0.25 417.85 0.25 416.65-0.6L416.65-0.6Q415.3-1.6 415.3-3.25L415.3-3.25Q415.3-6.9 420.4-11.98 425.5-17.05 429.75-17.05L429.75-17.05Q431.4-17.05 431.95-15.9L431.95-15.9Q432.1-15.5 432.2-15.23 432.3-14.95 432.35-14.95ZM417.4-2.65L417.4-2.65Q417.4-0.85 418.65-0.85L418.65-0.85Q421.55-0.85 426.55-7.2L426.55-7.2 431.85-14.5Q431.45-15.2 430.55-15.2L430.55-15.2Q427.5-15.2 422.45-10.48 417.4-5.75 417.4-2.65Z" fill="#61777f" data-fill-palette-color="secondary"></path></g></svg></g></svg></g></svg></g></svg></g><g><svg viewBox="0 0 54.05977792313669 53.9705430998852" height="53.9705430998852" width="54.05977792313669"><g><svg xmlns="http://www.w3.org/2000/svg" xmlns:xlink="http://www.w3.org/1999/xlink" version="1.1" x="0" y="0" viewBox="0 0.20499849319458008 99.95999908447266 99.79499816894531" enable-background="new 0 0 100 100" xml:space="preserve" height="53.9705430998852" width="54.05977792313669" class="icon-icon-0" data-fill-palette-color="accent" id="icon-0"><g fill="#d2d6dc" data-fill-palette-color="accent"><circle cx="49.98" cy="50.02" r="8.3" fill="#d2d6dc" data-fill-palette-color="accent"></circle><path d="M57.492 7.246c0 3.889-3.152 26.404-7.041 26.404-3.888 0-7.041-22.516-7.041-26.404s3.153-7.041 7.041-7.041C54.34 0.205 57.492 3.357 57.492 7.246z" fill="#d2d6dc" data-fill-palette-color="accent"></path><path d="M43.41 92.958c0-3.889 3.153-26.403 7.041-26.403 3.889 0 7.041 22.515 7.041 26.403S54.34 100 50.451 100C46.563 100 43.41 96.847 43.41 92.958z" fill="#d2d6dc" data-fill-palette-color="accent"></path><path d="M85.757 24.872c-2.791 2.707-21.142 16.131-23.849 13.341-2.708-2.79 11.248-20.736 14.038-23.445 2.79-2.707 7.249-2.643 9.956 0.148C88.612 17.705 88.546 22.163 85.757 24.872z" fill="#d2d6dc" data-fill-palette-color="accent"></path><path d="M14.773 75.181c2.79-2.708 21.14-16.129 23.849-13.342 2.707 2.792-11.249 20.736-14.039 23.445-2.789 2.71-7.247 2.645-9.955-0.146C11.919 82.348 11.985 77.892 14.773 75.181z" fill="#d2d6dc" data-fill-palette-color="accent"></path><path d="M74.163 86.315c-2.63-2.866-15.548-21.574-12.685-24.207C64.342 59.479 81.9 73.92 84.53 76.785c2.633 2.861 2.445 7.316-0.416 9.947C81.25 89.364 76.797 89.177 74.163 86.315z" fill="#d2d6dc" data-fill-palette-color="accent"></path><path d="M24.717 14.668c2.716 2.781 16.189 21.094 13.407 23.809-2.781 2.717-20.767-11.188-23.483-13.973-2.717-2.779-2.664-7.239 0.12-9.957C17.542 11.832 22.002 11.885 24.717 14.668z" fill="#d2d6dc" data-fill-palette-color="accent"></path><path d="M7.041 42.756c3.89 0 26.403 3.154 26.403 7.042 0 3.889-22.514 7.042-26.403 7.042C3.153 56.84 0 53.687 0 49.798 0 45.91 3.153 42.756 7.041 42.756z" fill="#d2d6dc" data-fill-palette-color="accent"></path><path d="M92.918 57.059c-3.889 0-26.402-3.15-26.402-7.039s22.514-7.041 26.402-7.041c3.89 0 7.042 3.152 7.042 7.041S96.808 57.059 92.918 57.059z" fill="#d2d6dc" data-fill-palette-color="accent"></path></g></svg></g></svg></g></svg></g><defs></defs></svg><rect width="395.52" height="45.26957704280401" fill="none" stroke="none" visibility="hidden"></rect></g></svg></g></svg>